<?xml version="1.0" encoding="UTF-8"?>
<!DOCTYPE svg PUBLIC "-//W3C//DTD SVG 1.1//EN" "http://www.w3.org/Graphics/SVG/1.1/DTD/svg11.dtd">
<svg xmlns="http://www.w3.org/2000/svg" version="1.1" width="500px" height="459px" style="shape-rendering:geometricPrecision; text-rendering:geometricPrecision; image-rendering:optimizeQuality; fill-rule:evenodd; clip-rule:evenodd" xmlns:xlink="http://www.w3.org/1999/xlink">
<g><path style="opacity:0.701" fill="#c0c0c2" d="M 13.5,12.5 C 38.5,12.5 63.5,12.5 88.5,12.5C 64.5206,14.3259 40.1873,15.1592 15.5,15C 14.944,15.3826 14.6107,15.8826 14.5,16.5C 13.8826,16.6107 13.3826,16.944 13,17.5C 12.831,31.0063 12.331,44.3396 11.5,57.5C 10.3393,43.6728 10.1727,29.6728 11,15.5C 12.045,14.6266 12.8783,13.6266 13.5,12.5 Z"/></g>
<g><path style="opacity:0.017" fill="#1a181d" d="M 411.5,43.5 C 399.167,43.5 386.833,43.5 374.5,43.5C 374.167,43.5 373.833,43.5 373.5,43.5C 330.836,19.5316 284.836,10.0316 235.5,15C 219.738,17.4342 204.072,20.2676 188.5,23.5C 197.102,20.8958 205.768,18.3958 214.5,16C 252.632,9.79836 290.632,11.465 328.5,21C 344.992,26.358 360.659,33.358 375.5,42C 387.674,42.1693 399.674,42.6693 411.5,43.5 Z"/></g>
<g><path style="opacity:0.996" fill="#9f9fa7" d="M 373.5,43.5 C 368.213,44.3424 362.88,44.6757 357.5,44.5C 355.859,42.7425 353.859,41.2425 351.5,40C 340.453,36.2058 329.453,32.2058 318.5,28C 278.989,17.8612 239.655,18.0279 200.5,28.5C 198.345,28.372 196.345,28.872 194.5,30C 194.833,30.3333 195.167,30.6667 195.5,31C 201.348,31.1728 207.015,31.6728 212.5,32.5C 201.668,34.312 191.001,33.6453 180.5,30.5C 181.376,29.7492 182.376,29.2492 183.5,29C 181.735,28.3603 180.068,28.5269 178.5,29.5C 178.5,29.1667 178.5,28.8333 178.5,28.5C 182.174,27.3695 185.507,25.7028 188.5,23.5C 204.072,20.2676 219.738,17.4342 235.5,15C 284.836,10.0316 330.836,19.5316 373.5,43.5 Z"/></g>
<g><path style="opacity:1" fill="#231d2f" d="M 357.5,44.5 C 352.167,44.5 346.833,44.5 341.5,44.5C 341.5,49.1667 341.5,53.8333 341.5,58.5C 336.489,58.3341 331.489,58.5007 326.5,59C 323.38,61.9936 322.714,65.4936 324.5,69.5C 302.866,56.827 279.866,46.827 255.5,39.5C 251.12,38.7066 246.786,37.7066 242.5,36.5C 240.438,35.2237 238.104,34.3903 235.5,34C 222.947,31.5743 210.28,30.241 197.5,30C 198.737,29.7679 199.737,29.2679 200.5,28.5C 239.655,18.0279 278.989,17.8612 318.5,28C 329.453,32.2058 340.453,36.2058 351.5,40C 353.859,41.2425 355.859,42.7425 357.5,44.5 Z"/></g>
<g><path style="opacity:0.035" fill="#14141f" d="M 188.5,23.5 C 185.507,25.7028 182.174,27.3695 178.5,28.5C 150.662,28.8313 122.995,28.4979 95.5,27.5C 122.835,27.6666 150.169,27.5 177.5,27C 181.061,25.3915 184.728,24.2248 188.5,23.5 Z"/></g>
<g><path style="opacity:0.282" fill="#525156" d="M 89.5,12.5 C 91.7525,12.9156 93.2525,14.249 94,16.5C 94.1773,20.3563 94.6773,24.023 95.5,27.5C 122.995,28.4979 150.662,28.8313 178.5,28.5C 178.5,28.8333 178.5,29.1667 178.5,29.5C 178.167,29.5 177.833,29.5 177.5,29.5C 149.833,29.5 122.167,29.5 94.5,29.5C 93.8333,29.8333 93.1667,30.1667 92.5,30.5C 93.1837,24.0983 92.1837,18.0983 89.5,12.5 Z"/></g>
<g><path style="opacity:1" fill="#b8b9c2" d="M 92.5,30.5 C 93.1667,30.1667 93.8333,29.8333 94.5,29.5C 108.15,30.8326 122.15,31.4993 136.5,31.5C 150.5,31.3333 164.5,31.1667 178.5,31C 177.944,30.6174 177.611,30.1174 177.5,29.5C 177.833,29.5 178.167,29.5 178.5,29.5C 180.068,28.5269 181.735,28.3603 183.5,29C 182.376,29.2492 181.376,29.7492 180.5,30.5C 191.001,33.6453 201.668,34.312 212.5,32.5C 222.383,33.8197 232.383,35.1531 242.5,36.5C 246.786,37.7066 251.12,38.7066 255.5,39.5C 256.66,40.265 257.66,41.265 258.5,42.5C 258.291,43.086 257.957,43.586 257.5,44C 258.672,44.4186 259.672,45.0853 260.5,46C 259.506,50.8707 256.84,52.3707 252.5,50.5C 244.92,48.6887 237.254,47.3553 229.5,46.5C 223.396,44.8367 217.062,43.67 210.5,43C 190.5,42.3333 170.5,42.3333 150.5,43C 148.453,45.3028 146.119,45.8028 143.5,44.5C 126.5,44.5 109.5,44.5 92.5,44.5C 92.8182,49.0323 92.4849,53.3656 91.5,57.5C 90.3395,44.0062 90.1728,30.3396 91,16.5C 91.1745,21.3514 91.6745,26.0181 92.5,30.5 Z"/></g>
<g><path style="opacity:0.96" fill="#dbdce0" d="M 94.5,29.5 C 122.167,29.5 149.833,29.5 177.5,29.5C 177.611,30.1174 177.944,30.6174 178.5,31C 164.5,31.1667 150.5,31.3333 136.5,31.5C 122.15,31.4993 108.15,30.8326 94.5,29.5 Z"/></g>
<g><path style="opacity:1" fill="#6b6a78" d="M 200.5,28.5 C 199.737,29.2679 198.737,29.7679 197.5,30C 210.28,30.241 222.947,31.5743 235.5,34C 238.104,34.3903 240.438,35.2237 242.5,36.5C 232.383,35.1531 222.383,33.8197 212.5,32.5C 207.015,31.6728 201.348,31.1728 195.5,31C 195.167,30.6667 194.833,30.3333 194.5,30C 196.345,28.872 198.345,28.372 200.5,28.5 Z"/></g>
<g><path style="opacity:1" fill="#adaeba" d="M 255.5,39.5 C 279.866,46.827 302.866,56.827 324.5,69.5C 324.833,69.5 325.167,69.5 325.5,69.5C 325.5,74.5 325.5,79.5 325.5,84.5C 325.167,84.5 324.833,84.5 324.5,84.5C 310.446,76.14 296.113,68.3066 281.5,61C 278.247,59.9635 274.914,59.2969 271.5,59C 266.538,55.9561 261.204,53.7894 255.5,52.5C 254.5,51.8333 253.5,51.1667 252.5,50.5C 256.84,52.3707 259.506,50.8707 260.5,46C 259.672,45.0853 258.672,44.4186 257.5,44C 257.957,43.586 258.291,43.086 258.5,42.5C 257.66,41.265 256.66,40.265 255.5,39.5 Z"/></g>
<g><path style="opacity:0.997" fill="#fefefe" d="M 373.5,43.5 C 373.833,43.5 374.167,43.5 374.5,43.5C 386.655,44.4952 398.989,44.8286 411.5,44.5C 411.5,53.5 411.5,62.5 411.5,71.5C 411.5,74.8333 411.5,78.1667 411.5,81.5C 411.5,88.5 411.5,95.5 411.5,102.5C 406.5,102.5 401.5,102.5 396.5,102.5C 395.833,102.5 395.167,102.5 394.5,102.5C 376.833,102.5 359.167,102.5 341.5,102.5C 341.5,88.1667 341.5,73.8333 341.5,59.5C 341.5,59.1667 341.5,58.8333 341.5,58.5C 341.5,53.8333 341.5,49.1667 341.5,44.5C 346.833,44.5 352.167,44.5 357.5,44.5C 362.88,44.6757 368.213,44.3424 373.5,43.5 Z"/></g>
<g><path style="opacity:0.996" fill="#94939c" d="M 229.5,46.5 C 206.916,43.8617 184.249,43.0283 161.5,44C 156.549,45.9805 151.715,48.1472 147,50.5C 138.741,56.7131 130.574,63.0465 122.5,69.5C 121.167,69.5 119.833,69.5 118.5,69.5C 116.5,69.5 114.5,69.5 112.5,69.5C 113.543,66.9438 115.21,64.7772 117.5,63C 124.56,57.7366 131.56,52.57 138.5,47.5C 140.989,47.7593 142.656,46.7593 143.5,44.5C 146.119,45.8028 148.453,45.3028 150.5,43C 170.5,42.3333 190.5,42.3333 210.5,43C 217.062,43.67 223.396,44.8367 229.5,46.5 Z"/></g>
<g><path style="opacity:1" fill="#211a2c" d="M 229.5,46.5 C 234.334,48.411 239.334,49.911 244.5,51C 248.17,51.5482 251.837,52.0482 255.5,52.5C 261.204,53.7894 266.538,55.9561 271.5,59C 274.914,59.2969 278.247,59.9635 281.5,61C 296.113,68.3066 310.446,76.14 324.5,84.5C 324.333,95.8382 324.5,107.172 325,118.5C 325.5,119 326,119.5 326.5,120C 331.489,120.499 336.489,120.666 341.5,120.5C 341.5,125.5 341.5,130.5 341.5,135.5C 336.821,135.334 332.155,135.501 327.5,136C 326.667,136.833 325.833,137.667 325,138.5C 324.829,145.679 324.329,152.679 323.5,159.5C 319.664,157.416 315.997,155.083 312.5,152.5C 311.71,151.206 310.71,150.039 309.5,149C 302.719,145.222 295.719,141.889 288.5,139C 283.61,138.94 278.943,137.94 274.5,136C 264.172,135.5 253.839,135.334 243.5,135.5C 243.5,136.5 243.5,137.5 243.5,138.5C 239.837,138.952 236.17,139.452 232.5,140C 231.619,140.708 230.953,141.542 230.5,142.5C 224.64,143.674 219.307,146.007 214.5,149.5C 214.5,145.167 214.5,140.833 214.5,136.5C 219.833,136.5 225.167,136.5 230.5,136.5C 230.5,114.167 230.5,91.8333 230.5,69.5C 201.833,69.5 173.167,69.5 144.5,69.5C 146.847,66.663 149.847,64.8296 153.5,64C 154.743,62.8455 155.743,61.5122 156.5,60C 154.016,55.2963 150.35,54.2963 145.5,57C 142.167,59 139.5,61.6667 137.5,65C 135.608,65.9734 133.608,66.6401 131.5,67C 130.619,67.7083 129.953,68.5416 129.5,69.5C 127.167,69.5 124.833,69.5 122.5,69.5C 130.574,63.0465 138.741,56.7131 147,50.5C 151.715,48.1472 156.549,45.9805 161.5,44C 184.249,43.0283 206.916,43.8617 229.5,46.5 Z"/></g>
<g><path style="opacity:1" fill="#696975" d="M 229.5,46.5 C 237.254,47.3553 244.92,48.6887 252.5,50.5C 253.5,51.1667 254.5,51.8333 255.5,52.5C 251.837,52.0482 248.17,51.5482 244.5,51C 239.334,49.911 234.334,48.411 229.5,46.5 Z"/></g>
<g><path style="opacity:1" fill="#3b3248" d="M 144.5,69.5 C 139.5,69.5 134.5,69.5 129.5,69.5C 129.953,68.5416 130.619,67.7083 131.5,67C 133.608,66.6401 135.608,65.9734 137.5,65C 139.5,61.6667 142.167,59 145.5,57C 150.35,54.2963 154.016,55.2963 156.5,60C 155.743,61.5122 154.743,62.8455 153.5,64C 149.847,64.8296 146.847,66.663 144.5,69.5 Z"/></g>
<g><path style="opacity:0.988" fill="#9a9b9d" d="M 88.5,12.5 C 88.8333,12.5 89.1667,12.5 89.5,12.5C 92.1837,18.0983 93.1837,24.0983 92.5,30.5C 91.6745,26.0181 91.1745,21.3514 91,16.5C 90.1728,30.3396 90.3395,44.0062 91.5,57.5C 90.7101,58.7942 89.7101,59.9609 88.5,61C 63.4933,61.8332 38.4933,61.6665 13.5,60.5C 12.8075,59.4822 12.1408,58.4822 11.5,57.5C 12.331,44.3396 12.831,31.0063 13,17.5C 13.3826,16.944 13.8826,16.6107 14.5,16.5C 14.6107,15.8826 14.944,15.3826 15.5,15C 40.1873,15.1592 64.5206,14.3259 88.5,12.5 Z"/></g>
<g><path style="opacity:1" fill="#7a7c83" d="M 14.5,16.5 C 39.1241,15.3527 63.7907,15.186 88.5,16C 89.6559,29.7583 89.8226,43.5917 89,57.5C 64.239,58.6607 39.4057,58.8274 14.5,58C 13.1908,44.1966 13.1908,30.3632 14.5,16.5 Z"/></g>
<g><path style="opacity:1" fill="#381959" d="M 341.5,58.5 C 341.5,58.8333 341.5,59.1667 341.5,59.5C 336.821,59.3342 332.155,59.5008 327.5,60C 325.66,62.8263 324.994,65.9929 325.5,69.5C 325.167,69.5 324.833,69.5 324.5,69.5C 322.714,65.4936 323.38,61.9936 326.5,59C 331.489,58.5007 336.489,58.3341 341.5,58.5 Z"/></g>
<g><path style="opacity:0.081" fill="#1e1b23" d="M 13.5,12.5 C 12.8783,13.6266 12.045,14.6266 11,15.5C 10.1727,29.6728 10.3393,43.6728 11.5,57.5C 12.1408,58.4822 12.8075,59.4822 13.5,60.5C 38.4933,61.6665 63.4933,61.8332 88.5,61C 89.7101,59.9609 90.7101,58.7942 91.5,57.5C 92.4849,53.3656 92.8182,49.0323 92.5,44.5C 109.5,44.5 126.5,44.5 143.5,44.5C 142.656,46.7593 140.989,47.7593 138.5,47.5C 138.631,46.7611 138.464,46.0944 138,45.5C 123.579,46.4904 109.079,46.8237 94.5,46.5C 97.0151,58.3059 92.3484,63.9725 80.5,63.5C 58.1521,62.7002 35.4854,62.2002 12.5,62C 11.6667,61.1667 10.8333,60.3333 10,59.5C 9.33333,44.5 9.33333,29.5 10,14.5C 10.8159,13.1772 11.9826,12.5106 13.5,12.5 Z"/></g>
<g><path style="opacity:0.644" fill="#bcadc5" d="M 108.5,69.5 C 99.3483,70.4936 90.015,70.8269 80.5,70.5C 80.5,92.1667 80.5,113.833 80.5,135.5C 79.5036,119.342 79.1702,103.009 79.5,86.5C 79.5,86.1667 79.5,85.8333 79.5,85.5C 79.5,85.1667 79.5,84.8333 79.5,84.5C 79.5,79.5 79.5,74.5 79.5,69.5C 89.1667,69.5 98.8333,69.5 108.5,69.5 Z"/></g>
<g><path style="opacity:1" fill="#fefefe" d="M 108.5,69.5 C 109.833,69.5 111.167,69.5 112.5,69.5C 114.5,69.5 116.5,69.5 118.5,69.5C 155.33,70.4985 192.33,70.8318 229.5,70.5C 229.5,92.1667 229.5,113.833 229.5,135.5C 224.167,135.5 218.833,135.5 213.5,135.5C 205.5,135.5 197.5,135.5 189.5,135.5C 188.501,227.999 188.167,320.665 188.5,413.5C 183.167,413.5 177.833,413.5 172.5,413.5C 155.5,413.5 138.5,413.5 121.5,413.5C 121.833,320.665 121.499,227.999 120.5,135.5C 107.167,135.5 93.8333,135.5 80.5,135.5C 80.5,113.833 80.5,92.1667 80.5,70.5C 90.015,70.8269 99.3483,70.4936 108.5,69.5 Z"/></g>
<g><path style="opacity:1" fill="#c8c5cc" d="M 118.5,69.5 C 119.833,69.5 121.167,69.5 122.5,69.5C 124.833,69.5 127.167,69.5 129.5,69.5C 134.5,69.5 139.5,69.5 144.5,69.5C 173.167,69.5 201.833,69.5 230.5,69.5C 230.5,91.8333 230.5,114.167 230.5,136.5C 225.167,136.5 219.833,136.5 214.5,136.5C 213.833,136.5 213.5,136.167 213.5,135.5C 218.833,135.5 224.167,135.5 229.5,135.5C 229.5,113.833 229.5,92.1667 229.5,70.5C 192.33,70.8318 155.33,70.4985 118.5,69.5 Z"/></g>
<g><path style="opacity:1" fill="#6d28af" d="M 341.5,59.5 C 341.5,73.8333 341.5,88.1667 341.5,102.5C 340.504,89.3438 340.171,76.0105 340.5,62.5C 336.818,62.3347 333.152,62.5014 329.5,63C 329,63.5 328.5,64 328,64.5C 327.147,69.2966 326.647,74.1299 326.5,79C 327.161,91.1593 327.661,103.326 328,115.5C 350.146,117.565 372.313,117.898 394.5,116.5C 394.5,117.167 394.5,117.833 394.5,118.5C 379.167,118.5 363.833,118.5 348.5,118.5C 341.137,118.831 333.803,118.497 326.5,117.5C 325.522,106.552 325.189,95.5516 325.5,84.5C 325.5,79.5 325.5,74.5 325.5,69.5C 324.994,65.9929 325.66,62.8263 327.5,60C 332.155,59.5008 336.821,59.3342 341.5,59.5 Z"/></g>
<g><path style="opacity:1" fill="#221b2e" d="M 411.5,81.5 C 423.027,91.2031 433.194,102.203 442,114.5C 446.987,122.467 451.987,130.467 457,138.5C 459.03,143.715 461.196,148.715 463.5,153.5C 463.788,156.866 463.954,160.2 464,163.5C 463.667,163.167 463.333,162.833 463,162.5C 461.56,164.046 459.727,164.879 457.5,165C 456.259,167.563 454.926,170.063 453.5,172.5C 452.086,171.376 450.586,170.376 449,169.5C 446.457,171.342 444.29,173.509 442.5,176C 439.833,176.333 437.167,176.667 434.5,177C 433.196,177.804 432.529,178.971 432.5,180.5C 436.458,193.357 439.791,206.524 442.5,220C 443.745,236.5 443.745,253 442.5,269.5C 440.926,285.479 436.426,300.479 429,314.5C 428.667,316.833 428.333,319.167 428,321.5C 422.721,330.411 417.221,339.078 411.5,347.5C 411.5,344.167 411.5,340.833 411.5,337.5C 416.266,331.76 419.432,325.093 421,317.5C 423.378,313.14 425.711,308.807 428,304.5C 438.712,268.31 440.379,231.644 433,194.5C 431.875,190.447 430.375,186.614 428.5,183C 422.143,181.519 419.643,184.019 421,190.5C 423.637,201.404 426.637,212.071 430,222.5C 430.687,238.186 430.354,253.853 429,269.5C 425.003,287.991 419.169,305.657 411.5,322.5C 411.5,316.167 411.5,309.833 411.5,303.5C 414.702,294.719 417.535,285.719 420,276.5C 421.34,265.126 422.506,253.793 423.5,242.5C 423.496,233.116 422.83,223.783 421.5,214.5C 420.914,214.291 420.414,213.957 420,213.5C 419.247,206.136 417.58,199.136 415,192.5C 414.29,191.027 413.124,190.36 411.5,190.5C 411.5,167.167 411.5,143.833 411.5,120.5C 406.833,120.5 402.167,120.5 397.5,120.5C 397.167,119.833 396.833,119.167 396.5,118.5C 396.5,113.167 396.5,107.833 396.5,102.5C 401.5,102.5 406.5,102.5 411.5,102.5C 411.5,95.5 411.5,88.5 411.5,81.5 Z"/></g>
<g><path style="opacity:0.124" fill="#100616" d="M 138.5,47.5 C 131.56,52.57 124.56,57.7366 117.5,63C 115.21,64.7772 113.543,66.9438 112.5,69.5C 111.167,69.5 109.833,69.5 108.5,69.5C 98.8333,69.5 89.1667,69.5 79.5,69.5C 79.5,74.5 79.5,79.5 79.5,84.5C 74.4889,84.3341 69.4889,84.5007 64.5,85C 64,85.5 63.5,86 63,86.5C 62.5001,99.4957 62.3334,112.496 62.5,125.5C 62.5,125.833 62.5,126.167 62.5,126.5C 62.1667,126.5 61.8333,126.5 61.5,126.5C 61.1583,125.662 60.4916,125.328 59.5,125.5C 59.9949,123.548 60.3282,121.548 60.5,119.5C 59.5507,107.834 59.0507,96.1672 59,84.5C 59.5,82.6667 60.6667,81.5 62.5,81C 67.0868,80.2009 71.5868,80.3676 76,81.5C 77.3025,77.3277 78.1358,72.9943 78.5,68.5C 89.4675,67.7342 100.467,67.2342 111.5,67C 115.56,62.7859 119.894,58.7859 124.5,55C 129.073,52.2152 133.739,49.7152 138.5,47.5 Z"/></g>
<g><path style="opacity:0.833" fill="#4b0b84" d="M 79.5,85.5 C 79.5,85.8333 79.5,86.1667 79.5,86.5C 74.9014,86.2 70.4014,86.5333 66,87.5C 65.5002,98.1615 65.3335,108.828 65.5,119.5C 65.7373,120.791 65.404,121.791 64.5,122.5C 64.1667,122.5 63.8333,122.5 63.5,122.5C 63.3335,110.829 63.5001,99.1619 64,87.5C 64.5,87 65,86.5 65.5,86C 70.1548,85.5008 74.8215,85.3342 79.5,85.5 Z"/></g>
<g><path style="opacity:0.02" fill="#222122" d="M 374.5,43.5 C 386.833,43.5 399.167,43.5 411.5,43.5C 412.117,43.6107 412.617,43.944 413,44.5C 413.168,53.1858 413.668,61.8525 414.5,70.5C 419.825,75.6562 425.325,80.6562 431,85.5C 433.58,90.084 436.913,94.084 441,97.5C 444.339,102.332 447.839,106.999 451.5,111.5C 456.33,119.244 460.664,127.244 464.5,135.5C 456.356,123.703 448.189,111.703 440,99.5C 433.234,90.731 425.734,82.5644 417.5,75C 415.713,73.4179 413.713,72.2512 411.5,71.5C 411.5,62.5 411.5,53.5 411.5,44.5C 398.989,44.8286 386.655,44.4952 374.5,43.5 Z"/></g>
<g><path style="opacity:1" fill="#8828e1" d="M 341.5,102.5 C 359.167,102.5 376.833,102.5 394.5,102.5C 394.5,107.167 394.5,111.833 394.5,116.5C 372.313,117.898 350.146,117.565 328,115.5C 327.661,103.326 327.161,91.1593 326.5,79C 326.647,74.1299 327.147,69.2966 328,64.5C 328.5,64 329,63.5 329.5,63C 333.152,62.5014 336.818,62.3347 340.5,62.5C 340.171,76.0105 340.504,89.3438 341.5,102.5 Z"/></g>
<g><path style="opacity:0.324" fill="#270445" d="M 79.5,84.5 C 79.5,84.8333 79.5,85.1667 79.5,85.5C 74.8215,85.3342 70.1548,85.5008 65.5,86C 65,86.5 64.5,87 64,87.5C 63.5001,99.1619 63.3335,110.829 63.5,122.5C 63.7373,123.791 63.404,124.791 62.5,125.5C 62.3334,112.496 62.5001,99.4957 63,86.5C 63.5,86 64,85.5 64.5,85C 69.4889,84.5007 74.4889,84.3341 79.5,84.5 Z"/></g>
<g><path style="opacity:1" fill="#4d1f7b" d="M 394.5,102.5 C 395.167,102.5 395.833,102.5 396.5,102.5C 396.5,107.833 396.5,113.167 396.5,118.5C 395.833,118.5 395.167,118.5 394.5,118.5C 394.5,117.833 394.5,117.167 394.5,116.5C 394.5,111.833 394.5,107.167 394.5,102.5 Z"/></g>
<g><path style="opacity:1" fill="#3e1963" d="M 324.5,84.5 C 324.833,84.5 325.167,84.5 325.5,84.5C 325.189,95.5516 325.522,106.552 326.5,117.5C 333.803,118.497 341.137,118.831 348.5,118.5C 348.833,119.167 349.167,119.833 349.5,120.5C 346.833,120.5 344.167,120.5 341.5,120.5C 336.489,120.666 331.489,120.499 326.5,120C 326,119.5 325.5,119 325,118.5C 324.5,107.172 324.333,95.8382 324.5,84.5 Z"/></g>
<g><path style="opacity:1" fill="#8c70ac" d="M 348.5,118.5 C 363.833,118.5 379.167,118.5 394.5,118.5C 395.167,118.5 395.833,118.5 396.5,118.5C 396.833,119.167 397.167,119.833 397.5,120.5C 381.5,120.5 365.5,120.5 349.5,120.5C 349.167,119.833 348.833,119.167 348.5,118.5 Z"/></g>
<g><path style="opacity:1" fill="#fefefe" d="M 341.5,120.5 C 344.167,120.5 346.833,120.5 349.5,120.5C 365.5,120.5 381.5,120.5 397.5,120.5C 402.167,120.5 406.833,120.5 411.5,120.5C 411.5,143.833 411.5,167.167 411.5,190.5C 411.5,228.167 411.5,265.833 411.5,303.5C 411.5,309.833 411.5,316.167 411.5,322.5C 411.5,327.5 411.5,332.5 411.5,337.5C 411.5,340.833 411.5,344.167 411.5,347.5C 411.5,351.5 411.5,355.5 411.5,359.5C 411.5,363.167 411.5,366.833 411.5,370.5C 411.5,373.5 411.5,376.5 411.5,379.5C 411.5,381.833 411.5,384.167 411.5,386.5C 411.5,390.5 411.5,394.5 411.5,398.5C 411.5,400.5 411.5,402.5 411.5,404.5C 411.5,407.167 411.5,409.833 411.5,412.5C 388.339,413.498 365.006,413.831 341.5,413.5C 341.5,321.5 341.5,229.5 341.5,137.5C 341.5,136.833 341.5,136.167 341.5,135.5C 341.5,130.5 341.5,125.5 341.5,120.5 Z"/></g>
<g><path style="opacity:0.991" fill="#9872c2" d="M 63.5,122.5 C 63.8333,122.5 64.1667,122.5 64.5,122.5C 64.5,122.833 64.5,123.167 64.5,123.5C 64.6625,128.547 64.3292,133.547 63.5,138.5C 63.1667,138.5 62.8333,138.5 62.5,138.5C 62.5,134.5 62.5,130.5 62.5,126.5C 62.5,126.167 62.5,125.833 62.5,125.5C 63.404,124.791 63.7373,123.791 63.5,122.5 Z"/></g>
<g><path style="opacity:1" fill="#3c1929" d="M 312.5,152.5 C 308.355,150.381 304.022,148.714 299.5,147.5C 299.5,146.833 299.167,146.5 298.5,146.5C 297.013,145.196 295.346,144.03 293.5,143C 289.529,142.915 285.862,141.915 282.5,140C 268.5,139.333 254.5,139.333 240.5,140C 237.321,141.461 233.988,142.295 230.5,142.5C 230.953,141.542 231.619,140.708 232.5,140C 236.17,139.452 239.837,138.952 243.5,138.5C 243.5,137.5 243.5,136.5 243.5,135.5C 253.839,135.334 264.172,135.5 274.5,136C 278.943,137.94 283.61,138.94 288.5,139C 295.719,141.889 302.719,145.222 309.5,149C 310.71,150.039 311.71,151.206 312.5,152.5 Z"/></g>
<g><path style="opacity:1" fill="#4c177c" d="M 341.5,135.5 C 341.5,136.167 341.5,136.833 341.5,137.5C 336.57,137.197 331.737,137.531 327,138.5C 326.5,146.493 326.334,154.493 326.5,162.5C 326.167,162.5 325.833,162.5 325.5,162.5C 325.5,161.833 325.167,161.5 324.5,161.5C 323.662,161.158 323.328,160.492 323.5,159.5C 324.329,152.679 324.829,145.679 325,138.5C 325.833,137.667 326.667,136.833 327.5,136C 332.155,135.501 336.821,135.334 341.5,135.5 Z"/></g>
<g><path style="opacity:1" fill="#edd2f6" d="M 120.5,135.5 C 121.499,227.999 121.833,320.665 121.5,413.5C 138.5,413.5 155.5,413.5 172.5,413.5C 172.5,413.833 172.5,414.167 172.5,414.5C 154.992,414.83 137.659,414.497 120.5,413.5C 120.5,320.833 120.5,228.167 120.5,135.5 Z"/></g>
<g><path style="opacity:1" fill="#7a13d3" d="M 340.5,177.5 C 336.132,173.133 332.132,168.467 328.5,163.5C 328.5,155.5 328.5,147.5 328.5,139.5C 332.5,139.5 336.5,139.5 340.5,139.5C 340.5,152.167 340.5,164.833 340.5,177.5 Z"/></g>
<g><path style="opacity:1" fill="#9f3b53" d="M 298.5,146.5 C 292.02,144.354 285.353,142.521 278.5,141C 267.167,140.333 255.833,140.333 244.5,141C 239.77,142.98 234.77,143.98 229.5,144C 223.418,145.766 218.085,148.766 213.5,153C 211.5,153.333 209.5,153.667 207.5,154C 203.102,157.394 198.435,160.394 193.5,163C 191.393,164.264 190.393,166.097 190.5,168.5C 190.167,168.5 189.833,168.5 189.5,168.5C 189.5,167.167 189.5,165.833 189.5,164.5C 192.138,161.379 195.472,159.212 199.5,158C 200.699,156.306 202.032,154.806 203.5,153.5C 205.403,153.204 207.07,152.537 208.5,151.5C 210.685,151.296 212.685,150.63 214.5,149.5C 219.307,146.007 224.64,143.674 230.5,142.5C 233.988,142.295 237.321,141.461 240.5,140C 254.5,139.333 268.5,139.333 282.5,140C 285.862,141.915 289.529,142.915 293.5,143C 295.346,144.03 297.013,145.196 298.5,146.5 Z"/></g>
<g><path style="opacity:1" fill="#762ab4" d="M 189.5,135.5 C 197.5,135.5 205.5,135.5 213.5,135.5C 213.5,136.167 213.833,136.5 214.5,136.5C 214.5,140.833 214.5,145.167 214.5,149.5C 212.685,150.63 210.685,151.296 208.5,151.5C 202.077,151.791 195.744,151.458 189.5,150.5C 189.5,145.5 189.5,140.5 189.5,135.5 Z"/></g>
<g><path style="opacity:1" fill="#7814d4" d="M 190.5,136.5 C 197.5,136.5 204.5,136.5 211.5,136.5C 211.5,140.833 211.5,145.167 211.5,149.5C 204.5,149.5 197.5,149.5 190.5,149.5C 190.5,145.167 190.5,140.833 190.5,136.5 Z"/></g>
<g><path style="opacity:1" fill="#5f229a" d="M 64.5,123.5 C 65.4767,126.287 65.81,129.287 65.5,132.5C 65.1918,138.425 65.5251,144.259 66.5,150C 78.8333,150.333 91.1667,150.667 103.5,151C 104.056,151.383 104.389,151.883 104.5,152.5C 91.4957,152.667 78.4957,152.5 65.5,152C 64.9558,151.283 64.2891,150.783 63.5,150.5C 63.5,146.5 63.5,142.5 63.5,138.5C 64.3292,133.547 64.6625,128.547 64.5,123.5 Z"/></g>
<g><path style="opacity:1" fill="#4c1b6d" d="M 189.5,150.5 C 195.744,151.458 202.077,151.791 208.5,151.5C 207.07,152.537 205.403,153.204 203.5,153.5C 198.833,153.5 194.167,153.5 189.5,153.5C 189.5,152.5 189.5,151.5 189.5,150.5 Z"/></g>
<g><path style="opacity:1" fill="#3f265a" d="M 62.5,138.5 C 62.8333,138.5 63.1667,138.5 63.5,138.5C 63.5,142.5 63.5,146.5 63.5,150.5C 63.4142,151.496 63.7476,152.329 64.5,153C 77.0068,153.169 89.3401,153.669 101.5,154.5C 99.8333,154.5 98.1667,154.5 96.5,154.5C 93.8333,154.5 91.1667,154.5 88.5,154.5C 86.8333,154.5 85.1667,154.5 83.5,154.5C 80.1667,154.5 76.8333,154.5 73.5,154.5C 72.1667,154.5 70.8333,154.5 69.5,154.5C 67.1667,154.5 64.8333,154.5 62.5,154.5C 61.8379,150.534 61.5045,146.534 61.5,142.5C 61.8333,141.167 62.1667,139.833 62.5,138.5 Z"/></g>
<g><path style="opacity:1" fill="#e64658" d="M 322.5,175.5 C 322.5,220.5 322.5,265.5 322.5,310.5C 321.04,312.463 319.373,314.296 317.5,316C 305.55,323.807 292.884,329.973 279.5,334.5C 261.877,336.308 244.543,335.141 227.5,331C 220.75,326.964 213.75,323.297 206.5,320C 200.946,315.393 195.612,310.56 190.5,305.5C 190.5,263.833 190.5,222.167 190.5,180.5C 198.39,172.787 207.057,165.954 216.5,160C 230.541,154.561 245.041,151.061 260,149.5C 275.869,151.236 291.036,155.403 305.5,162C 307.833,163 309.5,164.667 310.5,167C 312.833,168 315.167,169 317.5,170C 318.833,172.191 320.5,174.024 322.5,175.5 Z"/></g>
<g><path style="opacity:0.159" fill="#212025" d="M 464.5,135.5 C 478.214,159.298 486.547,184.965 489.5,212.5C 485.905,195.163 481.072,177.83 475,160.5C 472.025,153.909 468.858,147.409 465.5,141C 464.767,139.234 464.433,137.401 464.5,135.5 Z"/></g>
<g><path style="opacity:1" fill="#34223c" d="M 189.5,153.5 C 194.167,153.5 198.833,153.5 203.5,153.5C 202.032,154.806 200.699,156.306 199.5,158C 195.472,159.212 192.138,161.379 189.5,164.5C 189.5,160.833 189.5,157.167 189.5,153.5 Z"/></g>
<g><path style="opacity:1" fill="#e54254" d="M 298.5,146.5 C 299.167,146.5 299.5,146.833 299.5,147.5C 299.414,148.496 299.748,149.329 300.5,150C 310.394,152.628 317.727,158.461 322.5,167.5C 319.167,166.359 316.167,164.526 313.5,162C 305.7,158.87 298.367,154.87 291.5,150C 284.385,149.717 277.385,148.717 270.5,147C 256.876,145.625 243.543,146.625 230.5,150C 219.41,154.443 208.743,159.777 198.5,166C 196.998,170 194.332,172.833 190.5,174.5C 190.5,172.5 190.5,170.5 190.5,168.5C 190.393,166.097 191.393,164.264 193.5,163C 198.435,160.394 203.102,157.394 207.5,154C 209.5,153.667 211.5,153.333 213.5,153C 218.085,148.766 223.418,145.766 229.5,144C 234.77,143.98 239.77,142.98 244.5,141C 255.833,140.333 267.167,140.333 278.5,141C 285.353,142.521 292.02,144.354 298.5,146.5 Z"/></g>
<g><path style="opacity:1" fill="#ce1b2a" d="M 322.5,167.5 C 323.657,170.307 323.657,172.974 322.5,175.5C 320.5,174.024 318.833,172.191 317.5,170C 315.167,169 312.833,168 310.5,167C 309.5,164.667 307.833,163 305.5,162C 291.036,155.403 275.869,151.236 260,149.5C 245.041,151.061 230.541,154.561 216.5,160C 207.057,165.954 198.39,172.787 190.5,180.5C 190.5,178.5 190.5,176.5 190.5,174.5C 194.332,172.833 196.998,170 198.5,166C 208.743,159.777 219.41,154.443 230.5,150C 243.543,146.625 256.876,145.625 270.5,147C 277.385,148.717 284.385,149.717 291.5,150C 298.367,154.87 305.7,158.87 313.5,162C 316.167,164.526 319.167,166.359 322.5,167.5 Z"/></g>
<g><path style="opacity:1" fill="#3d334b" d="M 102.5,159.5 C 102.5,165.5 102.5,171.5 102.5,177.5C 91.3529,202.841 87.0196,229.508 89.5,257.5C 91.1911,272.976 93.5244,288.309 96.5,303.5C 93.9442,303.868 91.9442,303.034 90.5,301C 88.1163,291.392 85.6163,281.892 83,272.5C 81.5391,255.524 81.2057,238.524 82,221.5C 85.5387,203.201 90.5387,185.201 97,167.5C 98.3434,164.353 100.177,161.686 102.5,159.5 Z"/></g>
<g><path style="opacity:1" fill="#3a3247" d="M 61.5,142.5 C 61.5045,146.534 61.8379,150.534 62.5,154.5C 64.8333,154.5 67.1667,154.5 69.5,154.5C 51.9245,194.495 46.4245,236.161 53,279.5C 55.6556,287.791 57.9889,296.125 60,304.5C 61.3171,309.431 62.1504,314.431 62.5,319.5C 55.5703,319.058 52.2369,315.225 52.5,308C 52.7065,306.634 53.0398,305.301 53.5,304C 51.1864,301.208 49.5198,298.041 48.5,294.5C 38.8589,258.02 39.3589,221.686 50,185.5C 50.8184,182.773 50.6517,180.106 49.5,177.5C 48.2011,178.09 47.3678,179.09 47,180.5C 47.1151,185.593 45.7818,190.26 43,194.5C 42.4533,203.982 41.12,213.316 39,222.5C 38.5001,235.496 38.3334,248.496 38.5,261.5C 36.4593,238.39 37.626,215.39 42,192.5C 43,190.5 44,188.5 45,186.5C 46.0774,178.852 48.0774,171.518 51,164.5C 53.8662,156.665 57.3662,149.331 61.5,142.5 Z"/></g>
<g><path style="opacity:1" fill="#7b16d6" d="M 120.5,413.5 C 137.659,414.497 154.992,414.83 172.5,414.5C 172.5,419.167 172.5,423.833 172.5,428.5C 151.145,428.813 129.811,428.313 108.5,427C 107.206,419.604 106.54,412.104 106.5,404.5C 107.666,320.001 107.832,235.334 107,150.5C 106.5,150 106,149.5 105.5,149C 92.8377,148.5 80.1711,148.333 67.5,148.5C 67.6662,142.491 67.4995,136.491 67,130.5C 66.7216,131.416 66.2216,132.082 65.5,132.5C 65.81,129.287 65.4767,126.287 64.5,123.5C 64.5,123.167 64.5,122.833 64.5,122.5C 65.404,121.791 65.7373,120.791 65.5,119.5C 66.4942,109.347 66.8276,99.0135 66.5,88.5C 70.5,88.5 74.5,88.5 78.5,88.5C 78.3334,104.503 78.5001,120.503 79,136.5C 92.4208,137.49 105.921,137.823 119.5,137.5C 119.167,229.668 119.501,321.668 120.5,413.5 Z"/></g>
<g><path style="opacity:1" fill="#a01cda" d="M 327.5,163.5 C 327.833,163.5 328.167,163.5 328.5,163.5C 332.132,168.467 336.132,173.133 340.5,177.5C 340.5,221.833 340.5,266.167 340.5,310.5C 335.903,314.284 331.57,318.284 327.5,322.5C 327.5,269.5 327.5,216.5 327.5,163.5 Z"/></g>
<g><path style="opacity:1" fill="#b526b4" d="M 325.5,162.5 C 325.833,162.5 326.167,162.5 326.5,162.5C 326.5,163.167 326.833,163.5 327.5,163.5C 327.5,216.5 327.5,269.5 327.5,322.5C 327.5,322.833 327.5,323.167 327.5,323.5C 326.833,323.5 326.167,323.5 325.5,323.5C 325.5,269.833 325.5,216.167 325.5,162.5 Z"/></g>
<g><path style="opacity:0.999" fill="#282135" d="M 463.5,153.5 C 464.769,159.06 466.935,164.393 470,169.5C 470.651,177.12 472.984,184.12 477,190.5C 477.434,196.25 478.268,201.917 479.5,207.5C 484.387,244.284 481.221,280.284 470,315.5C 465.053,328.346 459.719,341.012 454,353.5C 448.081,359.673 443.414,366.673 440,374.5C 438.488,375.257 437.154,376.257 436,377.5C 429.047,387.618 420.881,396.618 411.5,404.5C 411.5,402.5 411.5,400.5 411.5,398.5C 458.809,349.775 479.976,291.108 475,222.5C 473.164,210.808 471.164,199.141 469,187.5C 467.345,180.693 465.512,174.026 463.5,167.5C 459.077,166.425 457.077,168.092 457.5,172.5C 458.643,178.096 460.476,183.43 463,188.5C 470.589,225.443 470.255,262.11 462,298.5C 456.322,313.261 450.655,327.927 445,342.5C 444,343.167 443,343.833 442,344.5C 438.435,352.518 433.768,359.851 428,366.5C 427.64,368.608 426.973,370.608 426,372.5C 420.664,376.67 415.83,381.337 411.5,386.5C 411.5,384.167 411.5,381.833 411.5,379.5C 412.88,380.706 414.047,380.373 415,378.5C 424.411,366.016 433.078,353.016 441,339.5C 442.051,333.589 444.717,328.589 449,324.5C 462.496,289.448 467.163,253.114 463,215.5C 460.462,201.217 456.296,187.384 450.5,174C 449.216,173.316 448.049,173.483 447,174.5C 446.004,178.207 446.67,181.541 449,184.5C 456.33,213.398 458.497,242.731 455.5,272.5C 452.205,283.345 449.705,294.345 448,305.5C 442.954,315.962 438.287,326.629 434,337.5C 426.948,348.86 419.448,359.86 411.5,370.5C 411.5,366.833 411.5,363.167 411.5,359.5C 414.097,356.705 416.93,354.038 420,351.5C 423.477,343.878 427.477,336.545 432,329.5C 434.381,321.114 437.714,313.114 442,305.5C 456.155,263.633 455.989,221.967 441.5,180.5C 439.5,180.5 437.5,180.5 435.5,180.5C 438.809,192.624 441.643,204.957 444,217.5C 445.97,234.501 445.97,251.501 444,268.5C 443.617,269.056 443.117,269.389 442.5,269.5C 443.745,253 443.745,236.5 442.5,220C 439.791,206.524 436.458,193.357 432.5,180.5C 432.529,178.971 433.196,177.804 434.5,177C 437.167,176.667 439.833,176.333 442.5,176C 444.29,173.509 446.457,171.342 449,169.5C 450.586,170.376 452.086,171.376 453.5,172.5C 454.926,170.063 456.259,167.563 457.5,165C 459.727,164.879 461.56,164.046 463,162.5C 463.333,162.833 463.667,163.167 464,163.5C 463.954,160.2 463.788,156.866 463.5,153.5 Z"/></g>
<g><path style="opacity:1" fill="#8022b9" d="M 341.5,137.5 C 341.5,229.5 341.5,321.5 341.5,413.5C 341.5,413.833 341.5,414.167 341.5,414.5C 340.502,380.004 340.168,345.337 340.5,310.5C 340.5,266.167 340.5,221.833 340.5,177.5C 340.5,164.833 340.5,152.167 340.5,139.5C 336.5,139.5 332.5,139.5 328.5,139.5C 328.5,147.5 328.5,155.5 328.5,163.5C 328.167,163.5 327.833,163.5 327.5,163.5C 326.833,163.5 326.5,163.167 326.5,162.5C 326.334,154.493 326.5,146.493 327,138.5C 331.737,137.531 336.57,137.197 341.5,137.5 Z"/></g>
<g><path style="opacity:1" fill="#f3dee3" d="M 189.5,135.5 C 189.5,140.5 189.5,145.5 189.5,150.5C 189.5,151.5 189.5,152.5 189.5,153.5C 189.5,157.167 189.5,160.833 189.5,164.5C 189.5,165.833 189.5,167.167 189.5,168.5C 189.5,219.167 189.5,269.833 189.5,320.5C 189.5,351.833 189.5,383.167 189.5,414.5C 184.833,414.5 180.167,414.5 175.5,414.5C 174.833,414.5 174.167,414.5 173.5,414.5C 173.167,414.5 172.833,414.5 172.5,414.5C 172.5,414.167 172.5,413.833 172.5,413.5C 177.833,413.5 183.167,413.5 188.5,413.5C 188.167,320.665 188.501,227.999 189.5,135.5 Z"/></g>
<g><path style="opacity:1" fill="#3e314c" d="M 102.5,201.5 C 102.5,228.5 102.5,255.5 102.5,282.5C 100.529,278.937 98.6953,275.271 97,271.5C 95.1145,253.493 95.1145,235.493 97,217.5C 98.8286,212.095 100.662,206.761 102.5,201.5 Z"/></g>
<g><path style="opacity:1" fill="#c9358a" d="M 324.5,161.5 C 325.167,161.5 325.5,161.833 325.5,162.5C 325.5,216.167 325.5,269.833 325.5,323.5C 325.5,324.167 325.5,324.833 325.5,325.5C 324.833,325.5 324.5,325.833 324.5,326.5C 324.167,326.5 323.833,326.5 323.5,326.5C 324.487,271.53 324.821,216.53 324.5,161.5 Z"/></g>
<g><path style="opacity:0.996" fill="#a3a2aa" d="M 411.5,71.5 C 413.713,72.2512 415.713,73.4179 417.5,75C 425.734,82.5644 433.234,90.731 440,99.5C 448.189,111.703 456.356,123.703 464.5,135.5C 464.433,137.401 464.767,139.234 465.5,141C 468.858,147.409 472.025,153.909 475,160.5C 481.072,177.83 485.905,195.163 489.5,212.5C 489.5,217.5 489.5,222.5 489.5,227.5C 488.834,222.983 488.167,218.317 487.5,213.5C 487.167,215.667 486.833,217.833 486.5,220C 488.42,240.28 487.42,260.114 483.5,279.5C 482.688,257.209 482.188,234.876 482,212.5C 481.901,210.347 481.067,208.681 479.5,207.5C 478.268,201.917 477.434,196.25 477,190.5C 472.984,184.12 470.651,177.12 470,169.5C 466.935,164.393 464.769,159.06 463.5,153.5C 461.196,148.715 459.03,143.715 457,138.5C 451.987,130.467 446.987,122.467 442,114.5C 433.194,102.203 423.027,91.2031 411.5,81.5C 411.5,78.1667 411.5,74.8333 411.5,71.5 Z"/></g>
<g><path style="opacity:1" fill="#382f44" d="M 411.5,190.5 C 413.124,190.36 414.29,191.027 415,192.5C 417.58,199.136 419.247,206.136 420,213.5C 420.414,213.957 420.914,214.291 421.5,214.5C 422.83,223.783 423.496,233.116 423.5,242.5C 422.506,253.793 421.34,265.126 420,276.5C 417.535,285.719 414.702,294.719 411.5,303.5C 411.5,265.833 411.5,228.167 411.5,190.5 Z"/></g>
<g><path style="opacity:1" fill="#3c334a" d="M 411.5,379.5 C 411.5,376.5 411.5,373.5 411.5,370.5C 419.448,359.86 426.948,348.86 434,337.5C 438.287,326.629 442.954,315.962 448,305.5C 449.705,294.345 452.205,283.345 455.5,272.5C 458.497,242.731 456.33,213.398 449,184.5C 446.67,181.541 446.004,178.207 447,174.5C 448.049,173.483 449.216,173.316 450.5,174C 456.296,187.384 460.462,201.217 463,215.5C 467.163,253.114 462.496,289.448 449,324.5C 444.717,328.589 442.051,333.589 441,339.5C 433.078,353.016 424.411,366.016 415,378.5C 414.047,380.373 412.88,380.706 411.5,379.5 Z"/></g>
<g><path style="opacity:1" fill="#3c344a" d="M 411.5,398.5 C 411.5,394.5 411.5,390.5 411.5,386.5C 415.83,381.337 420.664,376.67 426,372.5C 426.973,370.608 427.64,368.608 428,366.5C 433.768,359.851 438.435,352.518 442,344.5C 443,343.833 444,343.167 445,342.5C 450.655,327.927 456.322,313.261 462,298.5C 470.255,262.11 470.589,225.443 463,188.5C 460.476,183.43 458.643,178.096 457.5,172.5C 457.077,168.092 459.077,166.425 463.5,167.5C 465.512,174.026 467.345,180.693 469,187.5C 471.164,199.141 473.164,210.808 475,222.5C 479.976,291.108 458.809,349.775 411.5,398.5 Z"/></g>
<g><path style="opacity:0.179" fill="#2a292b" d="M 59.5,125.5 C 60.4916,125.328 61.1583,125.662 61.5,126.5C 47.0502,152.797 37.3836,180.797 32.5,210.5C 29.8333,232.833 29.8333,255.167 32.5,277.5C 35.4044,291.169 38.4044,304.836 41.5,318.5C 40.6851,317.571 39.8518,316.571 39,315.5C 26.3346,268.198 26.3346,220.864 39,173.5C 45.1574,157.189 51.9908,141.189 59.5,125.5 Z"/></g>
<g><path style="opacity:0.964" fill="#c3c3c6" d="M 32.5,210.5 C 33.7251,211.152 34.3917,212.319 34.5,214C 31.8424,233.174 31.8424,252.341 34.5,271.5C 34.4609,273.952 33.7943,275.952 32.5,277.5C 29.8333,255.167 29.8333,232.833 32.5,210.5 Z"/></g>
<g><path style="opacity:1" fill="#47226c" d="M 63.5,150.5 C 64.2891,150.783 64.9558,151.283 65.5,152C 78.4957,152.5 91.4957,152.667 104.5,152.5C 104.5,235.5 104.5,318.5 104.5,401.5C 103.833,401.167 103.167,400.833 102.5,400.5C 102.5,361.167 102.5,321.833 102.5,282.5C 102.5,255.5 102.5,228.5 102.5,201.5C 102.5,193.5 102.5,185.5 102.5,177.5C 102.5,171.5 102.5,165.5 102.5,159.5C 102.784,157.585 102.451,155.919 101.5,154.5C 89.3401,153.669 77.0068,153.169 64.5,153C 63.7476,152.329 63.4142,151.496 63.5,150.5 Z"/></g>
<g><path style="opacity:1" fill="#3c334a" d="M 411.5,359.5 C 411.5,355.5 411.5,351.5 411.5,347.5C 417.221,339.078 422.721,330.411 428,321.5C 428.333,319.167 428.667,316.833 429,314.5C 436.426,300.479 440.926,285.479 442.5,269.5C 443.117,269.389 443.617,269.056 444,268.5C 445.97,251.501 445.97,234.501 444,217.5C 441.643,204.957 438.809,192.624 435.5,180.5C 437.5,180.5 439.5,180.5 441.5,180.5C 455.989,221.967 456.155,263.633 442,305.5C 437.714,313.114 434.381,321.114 432,329.5C 427.477,336.545 423.477,343.878 420,351.5C 416.93,354.038 414.097,356.705 411.5,359.5 Z"/></g>
<g><path style="opacity:0.988" fill="#cdcdd2" d="M 489.5,227.5 C 491.147,256.911 487.814,285.578 479.5,313.5C 478.778,313.918 478.278,314.584 478,315.5C 478.862,307.046 480.528,298.712 483,290.5C 483.499,286.848 483.665,283.182 483.5,279.5C 487.42,260.114 488.42,240.28 486.5,220C 486.833,217.833 487.167,215.667 487.5,213.5C 488.167,218.317 488.834,222.983 489.5,227.5 Z"/></g>
<g><path style="opacity:0.995" fill="#9c9ba3" d="M 61.5,126.5 C 61.8333,126.5 62.1667,126.5 62.5,126.5C 62.5,130.5 62.5,134.5 62.5,138.5C 62.1667,139.833 61.8333,141.167 61.5,142.5C 57.3662,149.331 53.8662,156.665 51,164.5C 48.0774,171.518 46.0774,178.852 45,186.5C 44,188.5 43,190.5 42,192.5C 37.626,215.39 36.4593,238.39 38.5,261.5C 38.8331,272.332 40.3331,282.999 43,293.5C 45.6058,299.923 47.2725,306.59 48,313.5C 51.1243,318.415 53.1243,323.748 54,329.5C 60.0659,340.417 65.7325,351.417 71,362.5C 74.583,365.324 76.9163,368.99 78,373.5C 86.174,382.532 94.3407,391.532 102.5,400.5C 103.167,400.833 103.833,401.167 104.5,401.5C 104.5,405.5 104.5,409.5 104.5,413.5C 104.167,413.5 103.833,413.5 103.5,413.5C 103.167,412.5 102.5,411.833 101.5,411.5C 97.2084,405.374 92.0418,400.041 86,395.5C 85.7811,394.062 85.2811,392.729 84.5,391.5C 78.4661,384.799 72.7994,377.799 67.5,370.5C 66.8933,370.624 66.56,370.957 66.5,371.5C 65.6618,371.158 65.3284,370.492 65.5,369.5C 66.5735,368.749 66.7401,367.749 66,366.5C 64.16,364.662 62.4933,362.662 61,360.5C 57.9751,354.284 54.8085,348.117 51.5,342C 49.0407,333.605 45.7074,325.772 41.5,318.5C 38.4044,304.836 35.4044,291.169 32.5,277.5C 33.7943,275.952 34.4609,273.952 34.5,271.5C 31.8424,252.341 31.8424,233.174 34.5,214C 34.3917,212.319 33.7251,211.152 32.5,210.5C 37.3836,180.797 47.0502,152.797 61.5,126.5 Z"/></g>
<g><path style="opacity:1" fill="#3a3147" d="M 411.5,337.5 C 411.5,332.5 411.5,327.5 411.5,322.5C 419.169,305.657 425.003,287.991 429,269.5C 430.354,253.853 430.687,238.186 430,222.5C 426.637,212.071 423.637,201.404 421,190.5C 419.643,184.019 422.143,181.519 428.5,183C 430.375,186.614 431.875,190.447 433,194.5C 440.379,231.644 438.712,268.31 428,304.5C 425.711,308.807 423.378,313.14 421,317.5C 419.432,325.093 416.266,331.76 411.5,337.5 Z"/></g>
<g><path style="opacity:1" fill="#611ba2" d="M 104.5,152.5 C 105.222,152.918 105.722,153.584 106,154.5C 106.5,237.833 106.667,321.166 106.5,404.5C 106.54,412.104 107.206,419.604 108.5,427C 129.811,428.313 151.145,428.813 172.5,428.5C 172.5,423.833 172.5,419.167 172.5,414.5C 172.833,414.5 173.167,414.5 173.5,414.5C 173.805,419.762 173.471,424.928 172.5,430C 161.505,430.5 150.505,430.667 139.5,430.5C 134.595,429.555 129.595,429.221 124.5,429.5C 117.789,429.713 111.123,429.38 104.5,428.5C 104.5,423.5 104.5,418.5 104.5,413.5C 104.5,409.5 104.5,405.5 104.5,401.5C 104.5,318.5 104.5,235.5 104.5,152.5 Z"/></g>
<g><path style="opacity:1" fill="#7217c4" d="M 106.5,404.5 C 106.667,321.166 106.5,237.833 106,154.5C 105.722,153.584 105.222,152.918 104.5,152.5C 104.389,151.883 104.056,151.383 103.5,151C 91.1667,150.667 78.8333,150.333 66.5,150C 65.5251,144.259 65.1918,138.425 65.5,132.5C 66.2216,132.082 66.7216,131.416 67,130.5C 67.4995,136.491 67.6662,142.491 67.5,148.5C 80.1711,148.333 92.8377,148.5 105.5,149C 106,149.5 106.5,150 107,150.5C 107.832,235.334 107.666,320.001 106.5,404.5 Z"/></g>
<g><path style="opacity:1" fill="#241c30" d="M 69.5,154.5 C 70.8333,154.5 72.1667,154.5 73.5,154.5C 62.0659,179.172 56.2326,205.172 56,232.5C 55.3333,247.833 55.3333,263.167 56,278.5C 56.6667,279.167 57.3333,279.833 58,280.5C 59.4406,291.596 62.1073,302.263 66,312.5C 70.4186,316.968 72.9186,315.968 73.5,309.5C 57.8032,262.673 58.9698,216.339 77,170.5C 78.1212,164.629 80.2878,159.296 83.5,154.5C 85.1667,154.5 86.8333,154.5 88.5,154.5C 84.8622,162.234 81.6956,170.234 79,178.5C 78.3333,179.167 77.6667,179.833 77,180.5C 74.3071,193.054 71.3071,205.388 68,217.5C 67.3333,233.833 67.3333,250.167 68,266.5C 69.9945,275.47 71.6611,284.47 73,293.5C 74.7545,298.276 76.5878,302.942 78.5,307.5C 83.4921,308.508 85.4921,306.508 84.5,301.5C 82.0273,292.962 79.5273,284.295 77,275.5C 75.5877,256.185 75.2544,236.852 76,217.5C 80.221,195.603 87.0544,174.603 96.5,154.5C 98.1667,154.5 99.8333,154.5 101.5,154.5C 102.451,155.919 102.784,157.585 102.5,159.5C 100.177,161.686 98.3434,164.353 97,167.5C 90.5387,185.201 85.5387,203.201 82,221.5C 81.2057,238.524 81.5391,255.524 83,272.5C 85.6163,281.892 88.1163,291.392 90.5,301C 91.9442,303.034 93.9442,303.868 96.5,303.5C 93.5244,288.309 91.1911,272.976 89.5,257.5C 87.0196,229.508 91.3529,202.841 102.5,177.5C 102.5,185.5 102.5,193.5 102.5,201.5C 100.662,206.761 98.8286,212.095 97,217.5C 95.1145,235.493 95.1145,253.493 97,271.5C 98.6953,275.271 100.529,278.937 102.5,282.5C 102.5,321.833 102.5,361.167 102.5,400.5C 94.3407,391.532 86.174,382.532 78,373.5C 76.9163,368.99 74.583,365.324 71,362.5C 65.7325,351.417 60.0659,340.417 54,329.5C 53.1243,323.748 51.1243,318.415 48,313.5C 47.2725,306.59 45.6058,299.923 43,293.5C 40.3331,282.999 38.8331,272.332 38.5,261.5C 38.3334,248.496 38.5001,235.496 39,222.5C 41.12,213.316 42.4533,203.982 43,194.5C 45.7818,190.26 47.1151,185.593 47,180.5C 47.3678,179.09 48.2011,178.09 49.5,177.5C 50.6517,180.106 50.8184,182.773 50,185.5C 39.3589,221.686 38.8589,258.02 48.5,294.5C 49.5198,298.041 51.1864,301.208 53.5,304C 53.0398,305.301 52.7065,306.634 52.5,308C 52.2369,315.225 55.5703,319.058 62.5,319.5C 62.1504,314.431 61.3171,309.431 60,304.5C 57.9889,296.125 55.6556,287.791 53,279.5C 46.4245,236.161 51.9245,194.495 69.5,154.5 Z"/></g>
<g><path style="opacity:1" fill="#3c334a" d="M 73.5,154.5 C 76.8333,154.5 80.1667,154.5 83.5,154.5C 80.2878,159.296 78.1212,164.629 77,170.5C 58.9698,216.339 57.8032,262.673 73.5,309.5C 72.9186,315.968 70.4186,316.968 66,312.5C 62.1073,302.263 59.4406,291.596 58,280.5C 57.3333,279.833 56.6667,279.167 56,278.5C 55.3333,263.167 55.3333,247.833 56,232.5C 56.2326,205.172 62.0659,179.172 73.5,154.5 Z"/></g>
<g><path style="opacity:1" fill="#3c334a" d="M 88.5,154.5 C 91.1667,154.5 93.8333,154.5 96.5,154.5C 87.0544,174.603 80.221,195.603 76,217.5C 75.2544,236.852 75.5877,256.185 77,275.5C 79.5273,284.295 82.0273,292.962 84.5,301.5C 85.4921,306.508 83.4921,308.508 78.5,307.5C 76.5878,302.942 74.7545,298.276 73,293.5C 71.6611,284.47 69.9945,275.47 68,266.5C 67.3333,250.167 67.3333,233.833 68,217.5C 71.3071,205.388 74.3071,193.054 77,180.5C 77.6667,179.833 78.3333,179.167 79,178.5C 81.6956,170.234 84.8622,162.234 88.5,154.5 Z"/></g>
<g><path style="opacity:1" fill="#7626be" d="M 79.5,86.5 C 79.1702,103.009 79.5036,119.342 80.5,135.5C 93.8333,135.5 107.167,135.5 120.5,135.5C 120.5,228.167 120.5,320.833 120.5,413.5C 119.501,321.668 119.167,229.668 119.5,137.5C 105.921,137.823 92.4208,137.49 79,136.5C 78.5001,120.503 78.3334,104.503 78.5,88.5C 74.5,88.5 70.5,88.5 66.5,88.5C 66.8276,99.0135 66.4942,109.347 65.5,119.5C 65.3335,108.828 65.5002,98.1615 66,87.5C 70.4014,86.5333 74.9014,86.2 79.5,86.5 Z"/></g>
<g><path style="opacity:1" fill="#5a2132" d="M 190.5,322.5 C 197.559,326.688 204.226,331.355 210.5,336.5C 206.615,336.22 203.615,334.386 201.5,331C 196.908,329.435 193.241,326.602 190.5,322.5 Z"/></g>
<g><path style="opacity:1" fill="#7915d4" d="M 340.5,310.5 C 340.168,345.337 340.502,380.004 341.5,414.5C 359.167,414.5 376.833,414.5 394.5,414.5C 394.252,418.906 393.585,423.24 392.5,427.5C 370.94,428.732 349.44,428.732 328,427.5C 327.5,392.835 327.333,358.168 327.5,323.5C 327.5,323.167 327.5,322.833 327.5,322.5C 331.57,318.284 335.903,314.284 340.5,310.5 Z"/></g>
<g><path style="opacity:0.106" fill="#19181b" d="M 41.5,318.5 C 45.7074,325.772 49.0407,333.605 51.5,342C 54.8085,348.117 57.9751,354.284 61,360.5C 62.4933,362.662 64.16,364.662 66,366.5C 66.7401,367.749 66.5735,368.749 65.5,369.5C 54.5763,353.981 46.5763,336.981 41.5,318.5 Z"/></g>
<g><path style="opacity:1" fill="#211a2c" d="M 189.5,320.5 C 190.338,320.842 190.672,321.508 190.5,322.5C 193.241,326.602 196.908,329.435 201.5,331C 203.615,334.386 206.615,336.22 210.5,336.5C 215.814,339.391 221.481,341.724 227.5,343.5C 228.343,345.173 229.676,346.34 231.5,347C 237.564,347.195 243.564,347.861 249.5,349C 262.702,350.326 275.702,349.326 288.5,346C 295.592,342.178 302.925,338.844 310.5,336C 311.381,335.292 312.047,334.458 312.5,333.5C 314.913,331.113 317.58,328.946 320.5,327C 321.448,326.517 322.448,326.351 323.5,326.5C 322.847,343.791 322.513,361.124 322.5,378.5C 322.5,395.514 323.167,412.18 324.5,428.5C 325.167,428.833 325.833,429.167 326.5,429.5C 342.8,431.485 359.466,432.152 376.5,431.5C 370.428,435.047 364.428,438.88 358.5,443C 344.985,448.442 331.652,453.609 318.5,458.5C 278.167,458.5 237.833,458.5 197.5,458.5C 197.38,457.414 196.713,456.747 195.5,456.5C 187.063,453.878 178.73,451.045 170.5,448C 164.319,443.85 157.652,440.516 150.5,438C 148.007,436.581 145.674,435.081 143.5,433.5C 143.5,433.167 143.5,432.833 143.5,432.5C 153.172,432.666 162.839,432.5 172.5,432C 173.333,431.167 174.167,430.333 175,429.5C 175.499,424.511 175.666,419.511 175.5,414.5C 180.167,414.5 184.833,414.5 189.5,414.5C 189.5,383.167 189.5,351.833 189.5,320.5 Z"/></g>
<g><path style="opacity:1" fill="#d8455d" d="M 299.5,147.5 C 304.022,148.714 308.355,150.381 312.5,152.5C 315.997,155.083 319.664,157.416 323.5,159.5C 323.328,160.492 323.662,161.158 324.5,161.5C 324.821,216.53 324.487,271.53 323.5,326.5C 322.448,326.351 321.448,326.517 320.5,327C 317.58,328.946 314.913,331.113 312.5,333.5C 305.174,336.233 297.841,339.399 290.5,343C 286.072,343.587 281.739,344.587 277.5,346C 263.833,346.667 250.167,346.667 236.5,346C 233.688,344.451 230.688,343.618 227.5,343.5C 221.481,341.724 215.814,339.391 210.5,336.5C 204.226,331.355 197.559,326.688 190.5,322.5C 190.672,321.508 190.338,320.842 189.5,320.5C 189.5,269.833 189.5,219.167 189.5,168.5C 189.833,168.5 190.167,168.5 190.5,168.5C 190.5,170.5 190.5,172.5 190.5,174.5C 190.5,176.5 190.5,178.5 190.5,180.5C 190.5,222.167 190.5,263.833 190.5,305.5C 190.338,307.527 190.505,309.527 191,311.5C 193.833,314.333 196.667,317.167 199.5,320C 205.821,325.142 212.487,329.642 219.5,333.5C 221.437,334.931 223.27,336.598 225,338.5C 228.784,336.945 232.284,337.445 235.5,340C 243.997,340.742 252.164,342.575 260,345.5C 266.841,345.893 273.008,344.227 278.5,340.5C 281.758,341.417 285.091,341.751 288.5,341.5C 288.5,340.5 288.5,339.5 288.5,338.5C 293.578,337.461 298.578,336.128 303.5,334.5C 306.1,332.265 308.1,329.598 309.5,326.5C 313.798,323.55 318.132,320.55 322.5,317.5C 323.766,315.028 323.766,312.694 322.5,310.5C 322.5,265.5 322.5,220.5 322.5,175.5C 323.657,172.974 323.657,170.307 322.5,167.5C 317.727,158.461 310.394,152.628 300.5,150C 299.748,149.329 299.414,148.496 299.5,147.5 Z"/></g>
<g><path style="opacity:1" fill="#cf1d2b" d="M 190.5,305.5 C 195.612,310.56 200.946,315.393 206.5,320C 213.75,323.297 220.75,326.964 227.5,331C 244.543,335.141 261.877,336.308 279.5,334.5C 292.884,329.973 305.55,323.807 317.5,316C 319.373,314.296 321.04,312.463 322.5,310.5C 323.766,312.694 323.766,315.028 322.5,317.5C 318.132,320.55 313.798,323.55 309.5,326.5C 304.724,328.71 300.057,331.21 295.5,334C 277.247,339.318 258.58,340.985 239.5,339C 232.899,336.85 226.232,335.017 219.5,333.5C 212.487,329.642 205.821,325.142 199.5,320C 196.667,317.167 193.833,314.333 191,311.5C 190.505,309.527 190.338,307.527 190.5,305.5 Z"/></g>
<g><path style="opacity:1" fill="#facfd4" d="M 246.5,219.5 C 242.532,223.639 238.699,227.973 235,232.5C 234.5,239.158 234.334,245.825 234.5,252.5C 233.732,251.737 233.232,250.737 233,249.5C 232.333,244.5 232.333,239.5 233,234.5C 233.368,231.435 234.535,228.768 236.5,226.5C 237.559,224.445 239.225,223.111 241.5,222.5C 242.922,221.075 244.589,220.075 246.5,219.5 Z"/></g>
<g><path style="opacity:1" fill="#fadfe1" d="M 276.5,222.5 C 285.493,229.305 288.659,238.305 286,249.5C 279.643,268.263 266.809,274.763 247.5,269C 245.676,268.34 244.343,267.173 243.5,265.5C 249.201,266.709 255.034,267.709 261,268.5C 266.577,268.544 271.577,266.877 276,263.5C 278.51,259.681 280.843,255.681 283,251.5C 286.094,241.81 284.094,233.477 277,226.5C 276.51,225.207 276.343,223.873 276.5,222.5 Z"/></g>
<g><path style="opacity:1" fill="#df606e" d="M 236.5,226.5 C 234.535,228.768 233.368,231.435 233,234.5C 232.333,239.5 232.333,244.5 233,249.5C 233.232,250.737 233.732,251.737 234.5,252.5C 234.351,253.552 234.517,254.552 235,255.5C 237.669,259 240.502,262.333 243.5,265.5C 244.343,267.173 245.676,268.34 247.5,269C 266.809,274.763 279.643,268.263 286,249.5C 288.659,238.305 285.493,229.305 276.5,222.5C 273.752,220.399 270.752,218.566 267.5,217C 261.833,216.333 256.167,216.333 250.5,217C 248.68,217.2 247.347,218.034 246.5,219.5C 244.589,220.075 242.922,221.075 241.5,222.5C 242.058,220.436 243.225,218.77 245,217.5C 252.636,214.12 260.47,213.62 268.5,216C 272.936,218.389 277.603,220.223 282.5,221.5C 283.473,224.779 284.973,227.779 287,230.5C 287.667,239.167 287.667,247.833 287,256.5C 286.13,257.108 285.63,257.941 285.5,259C 287.317,261.606 287.817,264.44 287,267.5C 286.125,259.985 284.291,259.319 281.5,265.5C 277.214,268.598 272.547,271.098 267.5,273C 263.167,273.667 258.833,273.667 254.5,273C 250.543,271.149 246.376,269.982 242,269.5C 241.692,270.308 241.192,270.975 240.5,271.5C 238.268,264.917 235.601,258.584 232.5,252.5C 231.675,251.614 230.675,251.281 229.5,251.5C 229.334,244.825 229.5,238.158 230,231.5C 231.202,229.942 232.368,228.275 233.5,226.5C 234.5,226.5 235.5,226.5 236.5,226.5 Z"/></g>
<g><path style="opacity:1" fill="#fdfcfc" d="M 276.5,222.5 C 276.343,223.873 276.51,225.207 277,226.5C 284.094,233.477 286.094,241.81 283,251.5C 280.843,255.681 278.51,259.681 276,263.5C 271.577,266.877 266.577,268.544 261,268.5C 255.034,267.709 249.201,266.709 243.5,265.5C 240.502,262.333 237.669,259 235,255.5C 234.517,254.552 234.351,253.552 234.5,252.5C 234.334,245.825 234.5,239.158 235,232.5C 238.699,227.973 242.532,223.639 246.5,219.5C 247.347,218.034 248.68,217.2 250.5,217C 256.167,216.333 261.833,216.333 267.5,217C 270.752,218.566 273.752,220.399 276.5,222.5 Z"/></g>
<g><path style="opacity:0.886" fill="#ceced4" d="M 476.5,321.5 C 473.809,330.542 470.143,339.209 465.5,347.5C 463.656,346.796 463.156,345.463 464,343.5C 468.589,334.722 472.589,325.722 476,316.5C 476.494,318.134 476.66,319.801 476.5,321.5 Z"/></g>
<g><path style="opacity:1" fill="#e84150" d="M 309.5,326.5 C 308.1,329.598 306.1,332.265 303.5,334.5C 298.578,336.128 293.578,337.461 288.5,338.5C 288.5,339.5 288.5,340.5 288.5,341.5C 285.091,341.751 281.758,341.417 278.5,340.5C 273.008,344.227 266.841,345.893 260,345.5C 252.164,342.575 243.997,340.742 235.5,340C 232.284,337.445 228.784,336.945 225,338.5C 223.27,336.598 221.437,334.931 219.5,333.5C 226.232,335.017 232.899,336.85 239.5,339C 258.58,340.985 277.247,339.318 295.5,334C 300.057,331.21 304.724,328.71 309.5,326.5 Z"/></g>
<g><path style="opacity:1" fill="#581f34" d="M 312.5,333.5 C 312.047,334.458 311.381,335.292 310.5,336C 302.925,338.844 295.592,342.178 288.5,346C 275.702,349.326 262.702,350.326 249.5,349C 243.564,347.861 237.564,347.195 231.5,347C 229.676,346.34 228.343,345.173 227.5,343.5C 230.688,343.618 233.688,344.451 236.5,346C 250.167,346.667 263.833,346.667 277.5,346C 281.739,344.587 286.072,343.587 290.5,343C 297.841,339.399 305.174,336.233 312.5,333.5 Z"/></g>
<g><path style="opacity:0.996" fill="#96959f" d="M 479.5,207.5 C 481.067,208.681 481.901,210.347 482,212.5C 482.188,234.876 482.688,257.209 483.5,279.5C 483.665,283.182 483.499,286.848 483,290.5C 480.528,298.712 478.862,307.046 478,315.5C 478.278,314.584 478.778,313.918 479.5,313.5C 478.588,316.276 477.588,318.943 476.5,321.5C 476.66,319.801 476.494,318.134 476,316.5C 472.589,325.722 468.589,334.722 464,343.5C 463.156,345.463 463.656,346.796 465.5,347.5C 465.011,348.995 464.345,350.329 463.5,351.5C 463.741,348.001 462.908,347.668 461,350.5C 448.942,373.716 433.109,394.216 413.5,412C 412.906,412.464 412.239,412.631 411.5,412.5C 411.5,409.833 411.5,407.167 411.5,404.5C 420.881,396.618 429.047,387.618 436,377.5C 437.154,376.257 438.488,375.257 440,374.5C 443.414,366.673 448.081,359.673 454,353.5C 459.719,341.012 465.053,328.346 470,315.5C 481.221,280.284 484.387,244.284 479.5,207.5 Z"/></g>
<g><path style="opacity:1" fill="#2a1844" d="M 323.5,326.5 C 323.833,326.5 324.167,326.5 324.5,326.5C 324.5,360.5 324.5,394.5 324.5,428.5C 323.167,412.18 322.5,395.514 322.5,378.5C 322.513,361.124 322.847,343.791 323.5,326.5 Z"/></g>
<g><path style="opacity:1" fill="#42186f" d="M 325.5,325.5 C 325.18,360.21 325.514,394.877 326.5,429.5C 325.833,429.167 325.167,428.833 324.5,428.5C 324.5,394.5 324.5,360.5 324.5,326.5C 324.5,325.833 324.833,325.5 325.5,325.5 Z"/></g>
<g><path style="opacity:0.859" fill="#cec9d6" d="M 463.5,351.5 C 450.461,374.857 434.461,395.857 415.5,414.5C 409.5,414.5 403.5,414.5 397.5,414.5C 396.5,414.5 395.5,414.5 394.5,414.5C 376.833,414.5 359.167,414.5 341.5,414.5C 341.5,414.167 341.5,413.833 341.5,413.5C 365.006,413.831 388.339,413.498 411.5,412.5C 412.239,412.631 412.906,412.464 413.5,412C 433.109,394.216 448.942,373.716 461,350.5C 462.908,347.668 463.741,348.001 463.5,351.5 Z"/></g>
<g><path style="opacity:0.118" fill="#28272d" d="M 489.5,212.5 C 499.232,301.325 469.566,373.658 400.5,429.5C 399.209,429.737 398.209,429.404 397.5,428.5C 403.628,423.796 409.628,419.13 415.5,414.5C 434.461,395.857 450.461,374.857 463.5,351.5C 464.345,350.329 465.011,348.995 465.5,347.5C 470.143,339.209 473.809,330.542 476.5,321.5C 477.588,318.943 478.588,316.276 479.5,313.5C 487.814,285.578 491.147,256.911 489.5,227.5C 489.5,222.5 489.5,217.5 489.5,212.5 Z"/></g>
<g><path style="opacity:0.015" fill="#211e22" d="M 101.5,411.5 C 101.768,413.099 101.434,414.432 100.5,415.5C 97.3875,408.54 92.5541,402.873 86,398.5C 79.4906,389.471 72.9906,380.471 66.5,371.5C 66.56,370.957 66.8933,370.624 67.5,370.5C 72.7994,377.799 78.4661,384.799 84.5,391.5C 85.2811,392.729 85.7811,394.062 86,395.5C 92.0418,400.041 97.2084,405.374 101.5,411.5 Z"/></g>
<g><path style="opacity:0.996" fill="#aca9b3" d="M 397.5,414.5 C 403.5,414.5 409.5,414.5 415.5,414.5C 409.628,419.13 403.628,423.796 397.5,428.5C 397.194,425.055 397.194,421.389 397.5,417.5C 397.5,416.5 397.5,415.5 397.5,414.5 Z"/></g>
<g><path style="opacity:0.094" fill="#1a0522" d="M 101.5,411.5 C 102.5,411.833 103.167,412.5 103.5,413.5C 103.334,418.844 103.501,424.177 104,429.5C 104.5,430 105,430.5 105.5,431C 112.158,431.5 118.825,431.666 125.5,431.5C 126.671,432.345 128.005,433.011 129.5,433.5C 129.5,434.167 129.5,434.833 129.5,435.5C 120.53,434.834 111.53,434.167 102.5,433.5C 101.808,432.975 101.308,432.308 101,431.5C 100.501,426.177 100.334,420.844 100.5,415.5C 101.434,414.432 101.768,413.099 101.5,411.5 Z"/></g>
<g><path style="opacity:1" fill="#651daa" d="M 325.5,323.5 C 326.167,323.5 326.833,323.5 327.5,323.5C 327.333,358.168 327.5,392.835 328,427.5C 349.44,428.732 370.94,428.732 392.5,427.5C 393.585,423.24 394.252,418.906 394.5,414.5C 395.5,414.5 396.5,414.5 397.5,414.5C 397.5,415.5 397.5,416.5 397.5,417.5C 396.883,417.611 396.383,417.944 396,418.5C 395.974,422.108 395.141,425.442 393.5,428.5C 388.9,429.443 384.233,429.777 379.5,429.5C 361.833,429.5 344.167,429.5 326.5,429.5C 325.514,394.877 325.18,360.21 325.5,325.5C 325.5,324.833 325.5,324.167 325.5,323.5 Z"/></g>
<g><path style="opacity:0.784" fill="#9971be" d="M 397.5,417.5 C 397.194,421.389 397.194,425.055 397.5,428.5C 398.209,429.404 399.209,429.737 400.5,429.5C 399.564,430.974 398.23,431.974 396.5,432.5C 396.196,430.204 395.196,429.871 393.5,431.5C 391.653,430.427 389.653,430.427 387.5,431.5C 384.833,431.5 382.167,431.5 379.5,431.5C 379.5,430.833 379.5,430.167 379.5,429.5C 384.233,429.777 388.9,429.443 393.5,428.5C 395.141,425.442 395.974,422.108 396,418.5C 396.383,417.944 396.883,417.611 397.5,417.5 Z"/></g>
<g><path style="opacity:0.773" fill="#2e0650" d="M 103.5,413.5 C 103.833,413.5 104.167,413.5 104.5,413.5C 104.5,418.5 104.5,423.5 104.5,428.5C 111.123,429.38 117.789,429.713 124.5,429.5C 124.833,430.167 125.167,430.833 125.5,431.5C 118.825,431.666 112.158,431.5 105.5,431C 105,430.5 104.5,430 104,429.5C 103.501,424.177 103.334,418.844 103.5,413.5 Z"/></g>
<g><path style="opacity:1" fill="#3a195d" d="M 173.5,414.5 C 174.167,414.5 174.833,414.5 175.5,414.5C 175.666,419.511 175.499,424.511 175,429.5C 174.167,430.333 173.333,431.167 172.5,432C 162.839,432.5 153.172,432.666 143.5,432.5C 142.005,432.011 140.671,431.345 139.5,430.5C 150.505,430.667 161.505,430.5 172.5,430C 173.471,424.928 173.805,419.762 173.5,414.5 Z"/></g>
<g><path style="opacity:1" fill="#431870" d="M 326.5,429.5 C 344.167,429.5 361.833,429.5 379.5,429.5C 379.5,430.167 379.5,430.833 379.5,431.5C 378.5,431.5 377.5,431.5 376.5,431.5C 359.466,432.152 342.8,431.485 326.5,429.5 Z"/></g>
<g><path style="opacity:0.996" fill="#9679b2" d="M 124.5,429.5 C 129.595,429.221 134.595,429.555 139.5,430.5C 140.671,431.345 142.005,432.011 143.5,432.5C 143.5,432.833 143.5,433.167 143.5,433.5C 138.702,432.256 134.035,432.256 129.5,433.5C 128.005,433.011 126.671,432.345 125.5,431.5C 125.167,430.833 124.833,430.167 124.5,429.5 Z"/></g>
<g><path style="opacity:0.02" fill="#26242c" d="M 396.5,432.5 C 381.882,442.977 366.216,451.644 349.5,458.5C 348.167,458.5 346.833,458.5 345.5,458.5C 345.47,457.503 345.97,456.836 347,456.5C 363.985,450.487 379.485,442.153 393.5,431.5C 395.196,429.871 396.196,430.204 396.5,432.5 Z"/></g>
<g><path style="opacity:0.019" fill="#1e1d22" d="M 129.5,433.5 C 135.734,437.87 142.234,441.87 149,445.5C 157.631,450.526 166.464,454.86 175.5,458.5C 173.5,458.5 171.5,458.5 169.5,458.5C 157.863,452.347 146.197,446.181 134.5,440C 132.937,438.264 131.27,436.764 129.5,435.5C 129.5,434.833 129.5,434.167 129.5,433.5 Z"/></g>
<g><path style="opacity:0.941" fill="#cecdd3" d="M 393.5,431.5 C 379.485,442.153 363.985,450.487 347,456.5C 345.97,456.836 345.47,457.503 345.5,458.5C 343.167,458.5 340.833,458.5 338.5,458.5C 339.348,456.907 340.681,455.74 342.5,455C 358.69,449.334 373.69,441.501 387.5,431.5C 389.653,430.427 391.653,430.427 393.5,431.5 Z"/></g>
<g><path style="opacity:0.992" fill="#9f9da6" d="M 129.5,433.5 C 134.035,432.256 138.702,432.256 143.5,433.5C 145.674,435.081 148.007,436.581 150.5,438C 157.652,440.516 164.319,443.85 170.5,448C 178.73,451.045 187.063,453.878 195.5,456.5C 196.713,456.747 197.38,457.414 197.5,458.5C 190.167,458.5 182.833,458.5 175.5,458.5C 166.464,454.86 157.631,450.526 149,445.5C 142.234,441.87 135.734,437.87 129.5,433.5 Z"/></g>
<g><path style="opacity:0.996" fill="#94929d" d="M 376.5,431.5 C 377.5,431.5 378.5,431.5 379.5,431.5C 382.167,431.5 384.833,431.5 387.5,431.5C 373.69,441.501 358.69,449.334 342.5,455C 340.681,455.74 339.348,456.907 338.5,458.5C 331.833,458.5 325.167,458.5 318.5,458.5C 331.652,453.609 344.985,448.442 358.5,443C 364.428,438.88 370.428,435.047 376.5,431.5 Z"/></g>
</svg>
